<?xml version="1.0" encoding="UTF-8"?>
<svg id="b" data-name="Layer 2" xmlns="http://www.w3.org/2000/svg" viewBox="0 0 1321.8 680.99">
  <defs>
    <style>
      .d {
        fill: none;
      }
    </style>
  </defs>
  <g id="c" data-name="Layer 1">
    <path class="d" d="M429.26,4.46c47.13-9.91,91.38-3.1,133.87,18.22,42.61,21.38,78.07,54.66,119.74,77.46,39.51-16.14,75.98-39.37,116.85-52.41,112-35.74,194.35,22.55,266.58,101.06,54.14,58.84,88.94,108.25,159.12,151.78,28.98,17.98,63.72,29.95,90.99,47.04,2.24,1.4,6.08,2.81,5.3,6.04-1.35,5.6-20.36,17.59-25.74,21.01-39.55,25.08-81.57,44.88-120.34,72.12-37.06,26.04-65.91,58.47-103.43,84.4-101.06,69.83-262.63,140.81-385.6,148.34-33.15,2.03-61.93,2.84-94.91-3.44-130.12-24.78-299.04-138.24-389.19-234.01-25.21-26.78-44.55-56.48-71.09-82.73-34.19-33.82-73.27-60.03-108.49-91.74-8.38-7.54-17.48-15.42-22.89-25.47-.32-2.92,3.77-3.63,5.95-4.56,15-6.39,34.78-9.99,50.73-15.16,30.83-10,61.28-22.07,89.88-37.29C245.53,132.48,314.36,28.62,429.26,4.46ZM467.05,315.19c.88-.07,1.84.04,2.55.6,48.53,38.47,99.71,72.94,162.55,82.5,59.37,9.03,123.58-13.72,176.56-39.26,5.1-2.46,38.92-19.42,39.04-22.22-1.13-2.01-4.39-3.17-6.46-4.29-15.01-8.11-31-14.56-46.04-22.71-29.17-15.82-36.78-30.1-73.22-20.47-25.41,6.72-51.98,28.28-78.8,19.49-26.63-8.73-58.28-46.72-88.58-31.19-3.8,1.95-7.52,5.44-11.43,7.62-24.07,13.38-48.78,22.85-76.05,27.88l-.11,2.04Z"/>
  </g>
</svg>